<svg width="30" height="45" viewBox="0 0 30 45" fill="none" xmlns="http://www.w3.org/2000/svg">
<g id="&#240;&#159;&#166;&#134; icon &#34;figma&#34;">
<path id="Vector" d="M7.5 45C11.64 45 15 41.64 15 37.5V30H7.5C3.36 30 0 33.36 0 37.5C0 41.64 3.36 45 7.5 45Z" fill="#0ACF83"/>
<path id="Vector_2" d="M0 22.5C0 18.36 3.36 15 7.5 15H15V30H7.5C3.36 30 0 26.64 0 22.5Z" fill="#A259FF"/>
<path id="Vector_3" d="M0 7.5C0 3.36 3.36 0 7.5 0H15V15H7.5C3.36 15 0 11.64 0 7.5Z" fill="#F24E1E"/>
<path id="Vector_4" d="M15 0H22.5C26.64 0 30 3.36 30 7.5C30 11.64 26.64 15 22.5 15H15V0Z" fill="#FF7262"/>
<path id="Vector_5" d="M30 22.5C30 26.64 26.64 30 22.5 30C18.36 30 15 26.64 15 22.5C15 18.36 18.36 15 22.5 15C26.64 15 30 18.36 30 22.5Z" fill="#1ABCFE"/>
</g>
</svg>
