<svg width="16" height="18" viewBox="0 0 16 18" fill="none" xmlns="http://www.w3.org/2000/svg">
<path d="M10.5 6.33333C11.163 6.33333 11.7989 6.61428 12.2678 7.11438C12.7366 7.61448 13 8.29276 13 9C13 9.70724 12.7366 10.3855 12.2678 10.8856C11.7989 11.3857 11.163 11.6667 10.5 11.6667C9.83696 11.6667 9.20107 11.3857 8.73223 10.8856C8.26339 10.3855 8 9.70724 8 9C8 8.29276 8.26339 7.61448 8.73223 7.11438C9.20107 6.61428 9.83696 6.33333 10.5 6.33333ZM10.5 6.33333C11.163 6.33333 11.7989 6.05238 12.2678 5.55229C12.7366 5.05219 13 4.37391 13 3.66667C13 2.95942 12.7366 2.28115 12.2678 1.78105C11.7989 1.28095 11.163 1 10.5 1H5.5C4.83696 1 4.20107 1.28095 3.73223 1.78105C3.26339 2.28115 3 2.95942 3 3.66667C3 4.37391 3.26339 5.05219 3.73223 5.55229C4.20107 6.05238 4.83696 6.33333 5.5 6.33333M10.5 6.33333H5.5M5.5 6.33333C4.83696 6.33333 4.20107 6.61428 3.73223 7.11438C3.26339 7.61448 3 8.29276 3 9C3 9.70724 3.26339 10.3855 3.73223 10.8856C4.20107 11.3857 4.83696 11.6667 5.5 11.6667M5.5 11.6667H8M5.5 11.6667C5.00555 11.6667 4.5222 11.8231 4.11108 12.1161C3.69995 12.4091 3.37952 12.8256 3.1903 13.3128C3.00108 13.8001 2.95157 14.3363 3.04804 14.8536C3.1445 15.3709 3.3826 15.846 3.73223 16.219C4.08187 16.5919 4.52732 16.8459 5.01228 16.9488C5.49723 17.0517 5.99989 16.9988 6.45671 16.797C6.91352 16.5952 7.30397 16.2534 7.57867 15.8149C7.85338 15.3763 8 14.8608 8 14.3333V1" stroke="white" stroke-width="1.5" stroke-linecap="round" stroke-linejoin="round"/>
</svg>
