<svg width="20" height="20" viewBox="0 0 20 20" fill="none" xmlns="http://www.w3.org/2000/svg">
<path id="Vector" d="M7.35294 16.9913C2.8 18.3974 2.8 14.4805 1 13.9783M13.7059 19V15.4848C13.7059 14.4805 13.8118 14.0788 13.1765 13.4762C16.1412 13.1749 19 12.0701 19 7.45015C18.9987 6.24994 18.5051 5.09731 17.6235 4.23628C18.037 3.19375 17.9989 2.03842 17.5176 1.02241C17.5176 1.02241 16.3529 0.721111 13.8118 2.32805C11.6594 1.79634 9.3994 1.79634 7.24706 2.32805C4.70588 0.721111 3.54118 1.02241 3.54118 1.02241C3.05992 2.03842 3.02186 3.19375 3.43529 4.23628C2.55377 5.09731 2.06011 6.24994 2.05882 7.45015C2.05882 12.0701 4.91765 13.1749 7.88235 13.4762C7.24706 14.0788 7.24706 14.6814 7.35294 15.4848V19" stroke="white" stroke-width="1.5" stroke-linecap="round" stroke-linejoin="round"/>
</svg>
