<svg width="21" height="21" viewBox="0 0 21 21" fill="none" xmlns="http://www.w3.org/2000/svg">
<path id="Vector" d="M4.97679 20.5H0.830357V7.14702H4.97679V20.5ZM2.90134 5.32555C1.57545 5.32555 0.5 4.22732 0.5 2.90139C0.5 2.2645 0.752998 1.6537 1.20334 1.20335C1.65367 0.753003 2.26446 0.5 2.90134 0.5C3.53821 0.5 4.149 0.753003 4.59934 1.20335C5.04968 1.6537 5.30268 2.2645 5.30268 2.90139C5.30268 4.22732 4.22679 5.32555 2.90134 5.32555ZM20.4955 20.5H16.358V13.9999C16.358 12.4507 16.3268 10.4641 14.2022 10.4641C12.0464 10.4641 11.7161 12.1471 11.7161 13.8882V20.5H7.57411V7.14702H11.5509V8.96849H11.6089C12.1625 7.91936 13.5147 6.81219 15.5321 6.81219C19.7286 6.81219 20.5 9.57565 20.5 13.165V20.5H20.4955Z" fill="#F9FAFA"/>
</svg>
