<svg width="16" height="16" viewBox="0 0 16 16" fill="none" xmlns="http://www.w3.org/2000/svg">
<path d="M9.33334 2V4.66667C9.33334 4.84348 9.40358 5.01305 9.52861 5.13807C9.65363 5.2631 9.8232 5.33333 10 5.33333H12.6667M9.33334 2H4.66668C4.31305 2 3.97392 2.14048 3.72387 2.39052C3.47382 2.64057 3.33334 2.97971 3.33334 3.33333V8M9.33334 2L12.6667 5.33333M12.6667 5.33333V8M3.33334 12H4.33334C4.59856 12 4.85291 11.8946 5.04045 11.7071C5.22799 11.5196 5.33334 11.2652 5.33334 11C5.33334 10.7348 5.22799 10.4804 5.04045 10.2929C4.85291 10.1054 4.59856 10 4.33334 10H3.33334V14M11.3333 12H12.3333C12.5986 12 12.8529 11.8946 13.0405 11.7071C13.228 11.5196 13.3333 11.2652 13.3333 11C13.3333 10.7348 13.228 10.4804 13.0405 10.2929C12.8529 10.1054 12.5986 10 12.3333 10H11.3333V14M7.33334 14V10M9.33334 10V14M7.33334 12H9.33334" stroke="white" stroke-linecap="round" stroke-linejoin="round"/>
</svg>
