<svg width="54" height="41" viewBox="0 0 54 41" fill="none" xmlns="http://www.w3.org/2000/svg">
<g id="&#240;&#159;&#166;&#134; icon &#34;file type sass&#34;">
<path id="Vector" d="M46.4929 23.2771C44.7973 23.2793 43.1244 23.667 41.6006 24.411C41.1236 23.6193 40.7552 22.767 40.5053 21.8771C40.3618 21.1795 40.3286 20.4637 40.407 19.7559C40.5718 18.9769 40.7856 18.2092 41.0472 17.4572C41.0376 17.3589 40.9296 16.8941 39.8439 16.8787C38.7582 16.8633 37.823 17.0851 37.7227 17.3724C37.5341 17.8972 37.3827 18.4346 37.2695 18.9806C36.371 21.1973 35.265 23.3242 33.9662 25.3327C33.2386 24.1398 32.9393 22.7346 33.1177 21.3487C33.2826 20.5698 33.4964 19.802 33.7579 19.0501C33.7483 18.9517 33.6403 18.487 32.5546 18.4716C31.469 18.4561 30.5337 18.6779 30.4334 18.9652C30.3331 19.2526 30.2059 19.9294 29.9803 20.5735C29.7546 21.2176 27.1205 27.103 26.4301 28.6206C26.0753 29.3919 25.7687 30.0206 25.5527 30.4448C25.5425 30.4724 25.5296 30.4989 25.5141 30.5239C25.3213 30.8884 25.2191 31.087 25.2191 31.087V31.0966C25.0706 31.3627 24.9125 31.6096 24.8334 31.6096C24.6955 31.0586 24.7022 30.4814 24.8527 29.9338C25.2384 27.8917 26.1833 24.7176 26.1736 24.6076C26.1736 24.5479 26.3511 23.9964 25.5623 23.711C25.3794 23.6239 25.174 23.5957 24.9744 23.6302C24.7748 23.6648 24.5908 23.7603 24.4478 23.9038C24.3783 23.9038 24.3301 24.0716 24.3301 24.0716C24.3301 24.0716 25.1882 20.5021 22.6929 20.5021C21.7212 20.6976 20.7984 21.0854 19.9787 21.6428C19.1591 22.2001 18.4592 22.9158 17.9202 23.7476C17.2491 24.1121 15.8202 24.8911 14.291 25.73C13.7125 26.0559 13.107 26.3818 12.5458 26.6941C12.5073 26.6556 12.4668 26.6054 12.4282 26.5669C9.391 23.3311 3.80836 21.0479 4.04941 16.7187C4.13811 15.1413 4.67999 10.9991 14.7692 5.96798C23.0728 1.87597 29.6814 3.00985 30.8249 5.52445C32.4621 9.11509 27.2844 15.7815 18.7051 16.7476C17.7559 16.9402 16.7756 16.9169 15.8367 16.6796C14.8978 16.4423 14.0242 15.9969 13.2805 15.3765C12.8274 14.8829 12.7579 14.8539 12.5902 14.9523C12.3144 15.1008 12.4918 15.5443 12.5902 15.8008C12.9175 16.3931 13.3602 16.9138 13.8921 17.3321C14.424 17.7504 15.0344 18.0579 15.6871 18.2363C19.0623 18.9656 22.5812 18.6169 25.7475 17.2393C30.9541 15.228 35.0037 9.63575 33.8158 4.95173C32.6221 0.198282 24.7332 -1.36949 17.2665 1.28781C12.5897 2.86151 8.26836 5.3403 4.54886 8.58285C0.435633 12.43 -0.21423 15.7718 0.0518859 17.1738C1.01607 22.1451 7.86373 25.379 10.604 27.7798C10.4651 27.8589 10.3378 27.9283 10.2298 27.9862C8.85877 28.6669 3.63288 31.3994 2.32351 34.2881C0.844448 37.5663 2.5607 39.9093 3.69458 40.2256C5.40314 40.6345 7.19676 40.4998 8.82505 39.8402C10.4533 39.1806 11.835 38.029 12.7772 36.5462C13.5796 35.3163 14.0727 33.9107 14.2148 32.4492C14.3568 30.9876 14.1434 29.5134 13.5929 28.152C13.5836 28.13 13.5706 28.1098 13.5544 28.0922L14.6285 27.4616C15.3285 27.047 16.0188 26.6633 16.6108 26.347C16.2094 27.5049 15.9737 28.7138 15.9108 29.9377C15.7745 31.8135 16.3486 33.6721 17.5191 35.1443C17.6972 35.2976 17.904 35.414 18.1274 35.4869C18.3508 35.5597 18.5865 35.5874 18.8208 35.5685C19.9778 35.5685 20.5081 34.6043 21.0885 33.4589C21.7982 32.0589 22.4384 30.4313 22.4384 30.4313C22.4384 30.4313 21.64 34.83 23.8095 34.83C24.5982 34.83 25.3965 33.8041 25.7533 33.2873V33.2969C25.7533 33.2969 25.7725 33.268 25.813 33.1986L25.9403 32.9922V32.9729C26.2566 32.4214 26.9662 31.168 28.021 29.0873C29.3825 26.4049 30.6938 23.0514 30.6938 23.0514C30.8202 23.7884 30.9948 24.5163 31.2163 25.2305C31.534 26.0962 31.9096 26.9396 32.3406 27.7548C32.0243 28.1983 31.8276 28.4451 31.8276 28.4451L31.8373 28.4548C31.5808 28.7903 31.3051 29.1548 30.9984 29.5096C30.0862 30.5125 29.2398 31.5734 28.4646 32.6856C28.3494 32.8724 28.3098 33.0961 28.3538 33.3111C28.3979 33.5261 28.5223 33.7162 28.7017 33.8426C29.1077 34.0539 29.5704 34.1302 30.0227 34.0605C30.7043 34.0221 31.3745 33.8689 32.0051 33.6074C32.6144 33.3929 33.1893 33.0909 33.7117 32.7107C34.2501 32.3376 34.6836 31.8323 34.9703 31.2433C35.257 30.6544 35.3874 30.0015 35.3489 29.3476C35.2882 28.5239 35.0778 27.7181 34.7279 26.9699C34.8263 26.8311 34.9207 26.6941 35.0133 26.5553C36.1097 24.9189 37.0978 23.2125 37.9714 21.447C38.0979 22.184 38.2725 22.9119 38.494 23.6261C38.756 24.3742 39.0785 25.0998 39.4582 25.7955C38.197 26.7659 37.2035 28.0414 36.5714 29.5019C35.9505 31.2972 36.4326 32.1052 37.3428 32.2922C37.8408 32.3265 38.3388 32.2246 38.7833 31.9972C39.4368 31.7824 40.0524 31.4661 40.6075 31.06C41.1929 30.7145 41.6832 30.2289 42.0343 29.6469C42.3854 29.0649 42.5862 28.4048 42.6188 27.7258C42.575 27.0481 42.422 26.382 42.1657 25.7531C43.83 25.1029 45.6346 24.8956 47.4031 25.1515C52.0968 25.703 53.0243 28.6322 52.8469 29.8663C52.7637 30.3038 52.5878 30.7185 52.331 31.0824C52.0743 31.4462 51.7425 31.7509 51.3582 31.976C51.0323 32.1823 50.9243 32.2517 50.9533 32.4002C50.9918 32.6181 51.1461 32.6065 51.4257 32.568C52.1331 32.3481 52.7573 31.919 53.2158 31.3372C53.6744 30.7554 53.9458 30.0482 53.9943 29.309C54.1428 26.4165 51.3814 23.2443 46.4987 23.2732L46.4929 23.2771ZM10.2781 35.4798C8.71993 37.1768 6.55051 37.817 5.61332 37.2751C4.60671 36.6966 5.00202 34.1897 6.91497 32.3925C8.04972 31.371 9.27621 30.4563 10.5789 29.66C10.8064 29.5211 11.142 29.3245 11.5431 29.0815L11.6511 29.0217L11.8882 28.8732C12.23 30.0183 12.261 31.2336 11.978 32.3946C11.6951 33.5556 11.1083 34.6204 10.2781 35.4798ZM21.6188 27.7663C21.077 29.0873 19.9431 32.4716 19.2527 32.2826C18.6607 32.1245 18.2885 29.5597 19.1351 27.0258C19.5625 25.806 20.1851 24.6637 20.9786 23.6435C21.8271 22.6966 22.7643 22.3804 22.9899 22.766C22.7841 24.4917 22.3219 26.177 21.6188 27.7663ZM30.9772 32.244C30.7497 32.3616 30.5337 32.4369 30.4354 32.3829C30.3659 32.3443 30.5337 32.19 30.5337 32.19C30.5337 32.19 31.7081 30.9269 32.1709 30.3561C32.437 30.0206 32.7494 29.6272 33.0888 29.1818V29.309C33.0888 30.817 31.629 31.8333 30.9792 32.2479L30.9772 32.244ZM38.1971 30.5972C38.0293 30.4795 38.0582 30.0842 38.6213 28.852C39.0128 28.0606 39.5598 27.3562 40.2296 26.7809C40.3322 27.0728 40.3857 27.3798 40.3877 27.6892C40.3953 28.3478 40.1847 28.9904 39.7888 29.5168C39.3929 30.0432 38.8339 30.4237 38.199 30.5991L38.1971 30.5972Z" fill="#CD6799"/>
</g>
</svg>
