<svg width="52" height="31" viewBox="0 0 52 31" fill="none" xmlns="http://www.w3.org/2000/svg">
<g id="&#240;&#159;&#166;&#134; icon &#34;file type tailwind&#34;">
<path id="Vector" d="M12.8333 10.2667C14.5444 3.42222 18.8222 0 25.6667 0C35.9333 0 37.2167 7.7 42.35 8.98333C45.7722 9.83889 48.7667 8.55556 51.3333 5.13333C49.6222 11.9778 45.3444 15.4 38.5 15.4C28.2333 15.4 26.95 7.7 21.8167 6.41667C18.3944 5.56111 15.4 6.84444 12.8333 10.2667ZM0 25.6667C1.71111 18.8222 5.98889 15.4 12.8333 15.4C23.1 15.4 24.3833 23.1 29.5167 24.3833C32.9389 25.2389 35.9333 23.9556 38.5 20.5333C36.7889 27.3778 32.5111 30.8 25.6667 30.8C15.4 30.8 14.1167 23.1 8.98333 21.8167C5.56111 20.9611 2.56667 22.2444 0 25.6667Z" fill="#44A8B3"/>
</g>
</svg>
