<svg width="24" height="24" viewBox="0 0 24 24" fill="none" xmlns="http://www.w3.org/2000/svg">
<g id="&#240;&#159;&#166;&#134; icon &#34;file type vscode&#34;">
<path id="Vector" d="M23.1515 2.52763L18.2097 0.148407C17.9306 0.013846 17.6165 -0.0305593 17.3111 0.021347C17.0056 0.0732532 16.7239 0.2189 16.5049 0.438096L0.327803 15.1865C0.131527 15.3646 0.0140364 15.6134 0.00117798 15.8781C-0.0116804 16.1428 0.0811459 16.4018 0.259237 16.5981C0.280664 16.6212 0.302091 16.6435 0.325232 16.6641L1.64597 17.864C1.81855 18.0211 2.0407 18.1127 2.27383 18.1231C2.50696 18.1334 2.73634 18.0617 2.92215 17.9206L22.4076 3.14471C22.5547 3.03303 22.7302 2.96465 22.9141 2.94726C23.0981 2.92987 23.2832 2.96417 23.4487 3.0463C23.6142 3.12843 23.7535 3.25512 23.8509 3.41211C23.9483 3.56911 23.9999 3.75018 24 3.93493V3.87751C24 3.59545 23.9203 3.31912 23.7702 3.08032C23.6201 2.84152 23.4057 2.64994 23.1515 2.52763Z" fill="#0065A9"/>
<path id="Vector_2" d="M23.1515 21.3316L18.2097 23.7117C17.9305 23.8459 17.6166 23.8901 17.3112 23.8382C17.0058 23.7863 16.7241 23.6409 16.5049 23.422L0.327803 8.67272C0.131527 8.49462 0.0140364 8.24585 0.00117798 7.98113C-0.0116804 7.71641 0.0811459 7.45742 0.259237 7.26113C0.280664 7.23799 0.302091 7.21571 0.325232 7.19514L1.64597 5.99525C1.81873 5.83751 2.04138 5.74545 2.27509 5.73511C2.50879 5.72477 2.73871 5.79682 2.92472 5.93868L22.4076 20.7145C22.5547 20.8262 22.7302 20.8946 22.9141 20.912C23.0981 20.9294 23.2832 20.8951 23.4487 20.8129C23.6142 20.7308 23.7535 20.6041 23.8509 20.4471C23.9483 20.2901 23.9999 20.1091 24 19.9243V19.986C23.9991 20.2673 23.919 20.5427 23.769 20.7806C23.6189 21.0186 23.4049 21.2095 23.1515 21.3316Z" fill="#007ACC"/>
<path id="Vector_3" d="M18.2096 23.7117C17.9304 23.8459 17.6165 23.8901 17.3111 23.8382C17.0058 23.7863 16.7241 23.6409 16.5049 23.422C16.628 23.5435 16.7842 23.626 16.9539 23.6591C17.1236 23.6921 17.2994 23.6744 17.459 23.6081C17.6187 23.5417 17.7553 23.4297 17.8516 23.2861C17.9479 23.1425 17.9997 22.9736 18.0005 22.8007V1.05859C18.0006 0.884852 17.9492 0.714981 17.8527 0.570494C17.7562 0.426008 17.619 0.313408 17.4585 0.246957C17.298 0.180507 17.1213 0.163197 16.951 0.197219C16.7806 0.231241 16.6242 0.315065 16.5015 0.438073C16.7205 0.218956 17.0021 0.0733 17.3075 0.0212495C17.6129 -0.0308009 17.927 0.0133257 18.2062 0.147527L23.1472 2.52332C23.4021 2.64502 23.6175 2.83633 23.7684 3.07518C23.9193 3.31403 23.9995 3.59068 23.9999 3.8732V19.9861C24 20.2684 23.9203 20.5449 23.7701 20.7839C23.6198 21.0229 23.405 21.2145 23.1506 21.3368L18.2096 23.7117Z" fill="#1F9CF0"/>
</g>
</svg>
